<svg width="60" height="44" viewBox="0 0 60 44" fill="none" xmlns="http://www.w3.org/2000/svg">
<path id="icn-vdo" fill-rule="evenodd" clip-rule="evenodd" d="M53.4759 4.32812C54.8053 5.20313 55.8392 6.98957 56.5778 9.6875C57.3163 12.3854 57.7594 14.6823 57.9071 16.5781C58.0549 18.474 58.1287 20.3698 58.1287 22.2656C58.1287 31.599 56.5778 37.3594 53.4759 39.5469C51.1126 41.224 43.2103 42.0625 29.7689 42.0625C16.9183 42.0625 9.23756 41.3333 6.72652 39.875C5.3233 39.0729 4.17858 37.3594 3.29233 34.7344C2.40608 32.1094 1.87064 29.8307 1.68601 27.8984C1.50137 25.9661 1.40906 24.0886 1.40906 22.2656C1.40906 20.5885 1.50137 18.7839 1.68601 16.8516C1.87064 14.9193 2.38762 12.513 3.23694 9.63281C4.08626 6.75259 5.24944 4.875 6.72652 4C9.23756 2.54166 16.9183 1.8125 29.7689 1.8125C43.2103 1.8125 51.1126 2.65103 53.4759 4.32812ZM51.4821 36.7031C52.2945 36.1198 53.0145 34.5521 53.6423 32C54.27 29.4479 54.5839 26.2031 54.5839 22.2656C54.5839 18.3281 54.27 14.974 53.6423 12.2031C53.0145 9.43228 52.2945 7.75521 51.4821 7.17188C49.7096 5.93229 42.472 5.3125 29.7691 5.3125C17.5831 5.3125 10.5302 5.85937 8.60998 6.95312C7.72373 7.53646 6.91135 9.24999 6.17281 12.0938C5.43427 14.9375 5.02808 18.3281 4.95422 22.2656C5.02808 26.2031 5.4158 29.4844 6.11742 32.1094C6.81903 34.7344 7.64988 36.3385 8.60998 36.9219C10.4563 38.0156 17.5093 38.5625 29.7691 38.5625C42.472 38.5625 49.7096 37.9427 51.4821 36.7031ZM41.2902 20.5154C41.8811 20.88 42.1765 21.3904 42.1765 22.0466C42.1765 22.7029 41.8811 23.2133 41.2902 23.5779L25.3378 33.2029C25.0424 33.3487 24.747 33.4216 24.4516 33.4216C24.1562 33.4216 23.8608 33.3487 23.5653 33.2029C22.9745 32.9112 22.6791 32.4008 22.6791 31.6716V12.4216C22.6791 11.6924 22.9745 11.1638 23.5653 10.8357C24.1562 10.5076 24.747 10.5258 25.3378 10.8904L41.2902 20.5154ZM26.2239 28.6094L36.9697 22.0469L26.2239 15.4844V28.6094Z" fill="#FFD92A"/>
</svg>
