<svg width="20" height="20" viewBox="0 0 20 20" fill="none" xmlns="http://www.w3.org/2000/svg">
<path fill-rule="evenodd" clip-rule="evenodd" d="M18.3136 0.512695C18.6001 0.512695 18.8456 0.615001 19.0502 0.819615C19.2548 1.02423 19.3571 1.26976 19.3571 1.55622V18.3263C19.3571 18.6128 19.2548 18.8583 19.0502 19.0629C18.8456 19.2675 18.6001 19.3698 18.3136 19.3698H13.5134V12.0652H15.9565L16.3248 9.21694H13.5134V7.39997C13.5134 6.94164 13.6096 6.59789 13.8019 6.36872C13.9942 6.13955 14.3687 6.02497 14.9252 6.02497L16.423 6.0127V3.4714C15.9074 3.39774 15.1789 3.36091 14.2377 3.36091C13.1246 3.36091 12.2346 3.68829 11.5675 4.34305C10.9005 4.99782 10.567 5.92266 10.567 7.11761V9.21694H8.11161V12.0652H10.567V19.3698H1.54353C1.25707 19.3698 1.01153 19.2675 0.80692 19.0629C0.602306 18.8583 0.5 18.6128 0.5 18.3263V1.55622C0.5 1.26976 0.602306 1.02423 0.80692 0.819615C1.01153 0.615001 1.25707 0.512695 1.54353 0.512695H18.3136Z" fill="black"/>
</svg>
