<svg width="20" height="20" viewBox="0 0 20 20" fill="none" xmlns="http://www.w3.org/2000/svg">
<path fill-rule="evenodd" clip-rule="evenodd" d="M16.1242 6.43011C15.6659 6.63472 15.1707 6.77386 14.6387 6.84752C15.1953 6.52013 15.5758 6.04134 15.7804 5.41113C15.2485 5.72215 14.7001 5.93085 14.1354 6.03725C13.6361 5.49707 13.01 5.22698 12.257 5.22698C11.545 5.22698 10.9373 5.47865 10.4339 5.982C9.93056 6.48535 9.67889 7.09305 9.67889 7.80511C9.67889 8.04246 9.69935 8.23888 9.74027 8.39439C8.68446 8.3371 7.69414 8.07111 6.76929 7.5964C5.84443 7.1217 5.05872 6.4874 4.41214 5.6935C4.17479 6.10273 4.05612 6.5365 4.05612 6.99484C4.05612 7.92788 4.42851 8.64402 5.17331 9.14328C4.78863 9.13509 4.37941 9.02869 3.94563 8.82408V8.84863C3.94563 9.46248 4.15024 10.0088 4.55947 10.4876C4.96869 10.9664 5.47204 11.2631 6.06951 11.3777C5.83216 11.4431 5.62345 11.4759 5.44339 11.4759C5.33699 11.4759 5.1774 11.4595 4.9646 11.4268C5.13648 11.9424 5.44135 12.368 5.87922 12.7035C6.31709 13.0391 6.8143 13.211 7.37085 13.2192C6.42144 13.9558 5.35337 14.3241 4.16661 14.3241C3.95381 14.3241 3.7492 14.3118 3.55277 14.2872C4.76408 15.0566 6.08178 15.4413 7.50589 15.4413C8.42257 15.4413 9.28193 15.296 10.084 15.0054C10.8861 14.7149 11.5736 14.3261 12.1465 13.8391C12.7194 13.3522 13.2126 12.7915 13.6259 12.1572C14.0392 11.5229 14.3461 10.86 14.5466 10.1684C14.7472 9.47679 14.8474 8.78725 14.8474 8.09975C14.8474 7.95243 14.8433 7.84194 14.8351 7.76828C15.3508 7.39997 15.7804 6.95392 16.1242 6.43011ZM19.2671 4.04841V15.8341C19.2671 16.8081 18.9213 17.6409 18.2297 18.3324C17.5381 19.024 16.7053 19.3698 15.7313 19.3698H3.94563C2.97166 19.3698 2.1389 19.024 1.4473 18.3324C0.755705 17.6409 0.409912 16.8081 0.409912 15.8341V4.04841C0.409912 3.07445 0.755705 2.24168 1.4473 1.55008C2.1389 0.858488 2.97166 0.512695 3.94563 0.512695H15.7313C16.7053 0.512695 17.5381 0.858488 18.2297 1.55008C18.9213 2.24168 19.2671 3.07445 19.2671 4.04841Z" fill="black"/>
</svg>
