<svg width="19" height="23" viewBox="0 0 19 23" fill="none" xmlns="http://www.w3.org/2000/svg">
<path fill-rule="evenodd" clip-rule="evenodd" d="M11.8221 15.5309V18.1213C11.8221 18.6696 11.6625 18.9438 11.3433 18.9438C11.155 18.9438 10.9709 18.8538 10.7908 18.6737V14.9784C10.9709 14.7984 11.155 14.7083 11.3433 14.7083C11.6625 14.7083 11.8221 14.9825 11.8221 15.5309ZM15.9716 15.5431V16.1079H14.8667V15.5431C14.8667 14.9866 15.0509 14.7083 15.4192 14.7083C15.7875 14.7083 15.9716 14.9866 15.9716 15.5431ZM4.11225 12.8668H5.42587V11.7128H1.59551V12.8668H2.88457V19.8523H4.11225V12.8668ZM7.64797 19.8523H8.7406V13.7876H7.64797V18.4282C7.40243 18.7719 7.16917 18.9438 6.94819 18.9438C6.80087 18.9438 6.71493 18.8579 6.69038 18.686C6.68219 18.6614 6.6781 18.5182 6.6781 18.2563V13.7876H5.58547V18.5878C5.58547 18.9888 5.6182 19.2876 5.68368 19.484C5.7819 19.7868 6.01924 19.9382 6.39573 19.9382C6.78859 19.9382 7.206 19.6886 7.64797 19.1893V19.8523ZM12.9147 18.0353V15.6168C12.9147 15.0193 12.8779 14.6142 12.8042 14.4014C12.6651 13.9431 12.3745 13.7139 11.9326 13.7139C11.5233 13.7139 11.1428 13.9349 10.7908 14.3768V11.7128H9.69819V19.8523H10.7908V19.263C11.1591 19.7132 11.5397 19.9382 11.9326 19.9382C12.3745 19.9382 12.6651 19.7132 12.8042 19.263C12.8779 19.042 12.9147 18.6328 12.9147 18.0353ZM17.0643 17.9126V17.753H15.9471C15.9471 18.1704 15.9389 18.42 15.9225 18.5018C15.8652 18.7965 15.7015 18.9438 15.4314 18.9438C15.055 18.9438 14.8667 18.6614 14.8667 18.0967V17.0286H17.0643V15.7641C17.0643 15.1175 16.9538 14.6428 16.7328 14.34C16.4136 13.9226 15.9798 13.7139 15.4314 13.7139C14.8749 13.7139 14.437 13.9226 14.1178 14.34C13.8887 14.6428 13.7741 15.1175 13.7741 15.7641V17.888C13.7741 18.5346 13.8928 19.0093 14.1301 19.3121C14.4493 19.7295 14.8913 19.9382 15.456 19.9382C16.0453 19.9382 16.4873 19.7213 16.7819 19.2876C16.9292 19.0666 17.0152 18.8456 17.0397 18.6246C17.0561 18.551 17.0643 18.3136 17.0643 17.9126ZM9.59998 6.70386V4.12573C9.59998 3.561 9.42401 3.27863 9.07207 3.27863C8.72014 3.27863 8.54417 3.561 8.54417 4.12573V6.70386C8.54417 7.27678 8.72014 7.56323 9.07207 7.56323C9.42401 7.56323 9.59998 7.27678 9.59998 6.70386ZM18.427 15.9237C18.427 17.8389 18.3206 19.2712 18.1078 20.2206C17.9932 20.7035 17.7559 21.1086 17.3957 21.436C17.0356 21.7634 16.6182 21.9516 16.1435 22.0007C14.6375 22.1726 12.3664 22.2585 9.32989 22.2585C6.29341 22.2585 4.02223 22.1726 2.51627 22.0007C2.04157 21.9516 1.62211 21.7634 1.2579 21.436C0.893687 21.1086 0.658384 20.7035 0.551985 20.2206C0.339186 19.3039 0.232788 17.8717 0.232788 15.9237C0.232788 14.0085 0.339186 12.5763 0.551985 11.6268C0.666568 11.144 0.903917 10.7388 1.26404 10.4114C1.62416 10.0841 2.04566 9.89173 2.52855 9.83444C4.02632 9.67075 6.29341 9.5889 9.32989 9.5889C12.3664 9.5889 14.6375 9.67075 16.1435 9.83444C16.6182 9.89173 17.0377 10.0841 17.4019 10.4114C17.7661 10.7388 18.0014 11.144 18.1078 11.6268C18.3206 12.5435 18.427 13.9758 18.427 15.9237ZM6.17475 0.258545H7.42698L5.94149 5.15698V8.48399H4.71381V5.15698C4.59923 4.55132 4.34961 3.68377 3.96493 2.5543C3.6621 1.71129 3.39611 0.946048 3.16694 0.258545H4.46828L5.33993 3.48734L6.17475 0.258545ZM10.7172 4.34671V6.49515C10.7172 7.1581 10.6026 7.64098 10.3734 7.94381C10.0624 8.36123 9.62862 8.56993 9.07207 8.56993C8.52371 8.56993 8.09402 8.36123 7.78301 7.94381C7.55384 7.6328 7.43926 7.14992 7.43926 6.49515V4.34671C7.43926 3.69195 7.55384 3.21316 7.78301 2.91033C8.09402 2.49292 8.52371 2.28421 9.07207 2.28421C9.62862 2.28421 10.0624 2.49292 10.3734 2.91033C10.6026 3.21316 10.7172 3.69195 10.7172 4.34671ZM14.8299 2.35788V8.48399H13.7127V7.80877C13.2789 8.31621 12.8574 8.56993 12.4482 8.56993C12.0717 8.56993 11.8303 8.41852 11.7239 8.11569C11.6584 7.91926 11.6256 7.61234 11.6256 7.19493V2.35788H12.7428V6.86346C12.7428 7.13355 12.7469 7.27677 12.7551 7.29314C12.7797 7.4732 12.8656 7.56323 13.0129 7.56323C13.2339 7.56323 13.4672 7.38727 13.7127 7.03533V2.35788H14.8299Z" fill="black"/>
</svg>
